<svg width="200" height="40" viewBox="0 0 200 40" fill="none" xmlns="http://www.w3.org/2000/svg" id="image">
<path d="M102.964 19.4275C101.313 19.4275 100.123 19.9747 98.9156 20.5323V33.1472C100.072 33.2585 100.735 33.2585 101.831 33.2585C105.795 33.2585 106.339 31.4242 106.339 28.863V22.838C106.339 20.9466 105.717 19.4275 102.964 19.4275ZM76.64 18.7391C73.8898 18.7391 73.2621 20.2647 73.2621 22.1543V23.2159H80.0141V22.1543C80.0141 20.2647 79.3865 18.7391 76.64 18.7391ZM25.6442 31.8694C25.6442 33.3642 26.3421 34.1406 27.8825 34.1406C29.5348 34.1406 30.5132 33.5962 31.7194 33.0368V30.0444H28.1065C26.3958 30.0444 25.6442 30.3662 25.6442 31.8694ZM128.572 19.4275C125.817 19.4275 124.862 20.9466 124.862 22.838V29.7404C124.862 31.6365 125.817 33.1603 128.572 33.1603C131.319 33.1603 132.281 31.6365 132.281 29.7404V22.838C132.28 20.9466 131.318 19.4275 128.572 19.4275ZM12.144 39.609H4.04615V19.8026H0V12.9779H4.04708V8.87891C4.04708 3.31042 6.33073 0 12.8216 0H18.2257V6.82662H14.8479C12.3208 6.82662 12.1542 7.78074 12.1542 9.56083L12.144 12.9769H18.2628L17.5472 19.8017H12.144V39.609ZM39.8191 39.6604H33.07L32.7784 37.9356C29.6968 39.6605 26.9466 39.9401 25.1323 39.9401C20.1826 39.9401 17.5481 36.5989 17.5481 31.9779C17.5481 26.5264 20.6223 24.5807 26.1218 24.5807H31.7194V23.4021C31.7194 20.6192 31.4037 19.8026 27.1688 19.8026H20.2447L20.9213 12.9779H28.4897C37.7817 12.9779 39.8191 15.9441 39.8191 23.4573V39.6604ZM62.7695 20.3031C58.5697 19.5753 57.3636 19.4154 55.3428 19.4154C51.7132 19.4154 50.6163 20.2245 50.6163 23.3394V29.2316C50.6163 32.3465 51.7132 33.1594 55.3428 33.1594C57.3636 33.1594 58.5697 32.9966 62.7695 32.266V38.9234C59.0909 39.7568 56.6943 39.9757 54.6689 39.9757C45.9749 39.9757 42.5193 35.3557 42.5193 28.6815V23.9007C42.5193 17.2209 45.9749 12.5925 54.6689 12.5925C56.6943 12.5925 59.0909 12.8123 62.7695 13.6495V20.3031ZM88.111 28.6815H73.2612V29.2316C73.2612 32.3465 74.3591 33.1594 77.9877 33.1594C81.2498 33.1594 83.241 32.9966 87.4334 32.266V38.9234C83.39 39.7568 81.2832 39.9757 77.3166 39.9757C68.6217 39.9757 65.1643 35.3557 65.1643 28.6815V23.215C65.1643 17.3752 67.7293 12.5925 76.639 12.5925C85.5487 12.5925 88.111 17.3201 88.111 23.215V28.6815ZM114.435 28.8078C114.435 35.2584 112.61 39.9635 101.557 39.9635C97.5659 39.9635 95.2249 39.609 90.8195 38.9243V2.05042L98.9146 0.685657V13.584C100.664 12.9274 102.928 12.5934 104.989 12.5934C113.085 12.5934 114.434 16.2612 114.434 22.1552V28.8078H114.435ZM140.384 28.9481C140.384 34.5129 138.111 39.9102 128.598 39.9102C119.082 39.9102 116.765 34.5129 116.765 28.9481V23.5751C116.765 18.0076 119.082 12.6093 128.598 12.6093C138.111 12.6093 140.384 18.0076 140.384 23.5751V28.9481ZM166.316 28.9481C166.316 34.5129 164.04 39.9102 154.53 39.9102C145.013 39.9102 142.697 34.5129 142.697 28.9481V23.5751C142.697 18.0076 145.013 12.6093 154.53 12.6093C164.04 12.6093 166.316 18.0076 166.316 23.5751V28.9481ZM192.929 39.609H184.154L176.733 27.0904V39.609H168.635V2.04948L176.733 0.68472V24.8641L184.154 12.9779H192.929L184.827 25.9492L192.929 39.609ZM154.502 19.4275C151.752 19.4275 150.797 20.9466 150.797 22.838V29.7404C150.797 31.6365 151.752 33.1603 154.502 33.1603C157.248 33.1603 158.22 31.6365 158.22 29.7404V22.838C158.22 20.9466 157.248 19.4275 154.502 19.4275ZM197.551 34.9376C198.914 34.9376 200 36.061 200 37.4641C200 38.8887 198.913 40 197.54 40C196.174 40 195.066 38.8887 195.066 37.4641C195.066 36.061 196.174 34.9376 197.54 34.9376H197.551ZM197.54 35.3304C196.442 35.3304 195.543 36.2855 195.543 37.4641C195.543 38.6642 196.443 39.6071 197.551 39.6071C198.66 39.6184 199.545 38.6642 199.545 37.4753C199.545 36.2864 198.66 35.3304 197.551 35.3304H197.54ZM197.075 38.9346H196.63V36.1152C196.864 36.0825 197.086 36.0498 197.419 36.0498C197.841 36.0498 198.117 36.1396 198.287 36.2621C198.45 36.3865 198.538 36.5764 198.538 36.8449C198.538 37.2172 198.296 37.4407 197.997 37.5315V37.553C198.24 37.5988 198.406 37.8214 198.462 38.2358C198.527 38.6745 198.595 38.842 198.638 38.9336H198.173C198.107 38.842 198.039 38.5847 197.984 38.2134C197.919 37.8551 197.739 37.7204 197.384 37.7204H197.076V38.9346H197.075ZM197.075 37.3743H197.397C197.762 37.3743 198.072 37.2387 198.072 36.8898C198.072 36.6428 197.896 36.3968 197.397 36.3968C197.252 36.3968 197.151 36.408 197.075 36.4183V37.3743Z" fill="black"/>
</svg>
