<svg width="200" height="48" viewBox="0 0 200 48" fill="none" xmlns="http://www.w3.org/2000/svg" id="image">
<path d="M78.7437 17.1366H85.0737V37.1036H78.7437V17.1366Z" fill="black"/>
<path d="M86.3953 17.1366H92.4922V19.8664H92.6086C94.0844 17.7215 95.9872 16.5517 98.7446 16.5517C103.094 16.5517 105.657 19.6715 105.657 24.1173V37.1036H99.327V25.4043C99.327 23.2983 98.2785 21.8552 96.2203 21.8552C94.1234 21.8552 92.7252 23.6103 92.7252 26.0671V37.1036H86.3953V17.1366Z" fill="black"/>
<path d="M85.7054 11.7945C85.7054 9.6885 84.0053 7.98144 81.9084 7.98144C79.8114 7.98144 78.1113 9.6885 78.1113 11.7945C78.1113 13.9004 79.8114 15.6074 81.9084 15.6074C84.0053 15.6074 85.7054 13.9004 85.7054 11.7945Z" fill="black"/>
<path d="M150.177 16.8481C149.996 16.8318 149.789 16.8245 149.547 16.8245C147.139 16.8245 145.508 17.8774 144.11 20.2563H143.993V17.1365H137.935V37.1034H144.265V28.1339C144.265 23.9779 146.557 22.0521 150.177 22.3881V16.8481Z" fill="black"/>
<path d="M181.24 24.5072C178.716 24.0393 176.464 23.8444 176.464 22.4405C176.464 21.1924 177.668 20.6075 179.221 20.6075C180.968 20.6075 182.172 21.1534 182.405 22.9475H188.23C187.92 19.0087 184.891 16.5517 179.26 16.5517C174.561 16.5517 170.677 18.7356 170.677 22.9475C170.677 27.627 174.367 28.563 177.823 29.1481C180.464 29.6161 182.871 29.8111 182.871 31.6049C182.871 32.8919 181.667 33.5939 179.765 33.5939C177.856 33.5939 176.593 32.7828 176.206 31.1371H170.174C170.618 35.2417 174.206 37.7277 179.803 37.7277C185.007 37.7277 188.852 35.4658 188.852 31.0981C188.852 25.9892 184.735 25.0922 181.24 24.5072Z" fill="black"/>
<path d="M159.996 21.0754C162.054 21.0754 163.53 22.5963 163.763 24.9754H155.919C156.346 22.5963 157.589 21.0754 159.996 21.0754ZM160.346 33.1257C157.744 33.1257 156.268 31.4489 155.88 28.758H170.171C170.21 24.7023 169.045 21.2314 166.676 19.0476C164.967 17.4877 162.715 16.5517 159.879 16.5517C153.821 16.5517 149.666 21.1143 149.666 27.0812C149.666 33.1257 153.705 37.6887 160.268 37.6887C162.792 37.6887 164.812 37.0257 166.481 35.8558C168.229 34.6468 169.394 32.9309 169.821 31.1371H163.647C163.103 32.385 162.016 33.1257 160.346 33.1257Z" fill="black"/>
<path d="M200 32.3952C199.707 32.4068 199.313 32.4239 198.951 32.4239C197.592 32.4239 196.738 32.0338 196.738 30.4739V21.1143H200V17.1365H196.738V10.8188H190.563V17.1365H188.62V21.1143H190.563V31.8388C190.563 36.1288 193.204 37.3375 196.893 37.3375C198.301 37.3375 199.365 37.2317 200 37.1071V32.3952Z" fill="black"/>
<path d="M116.961 32.4042C116.709 32.4141 116.417 32.4239 116.145 32.4239C114.786 32.4239 113.931 32.0338 113.931 30.4739V21.1143H116.961V17.1365H113.931V10.8188H107.757V17.1365H105.698V21.1143H107.757V31.8388C107.757 36.1288 110.397 37.3375 114.087 37.3375C115.335 37.3375 116.312 37.2541 116.961 37.1485V32.4042Z" fill="black"/>
<path d="M130.749 24.9754C130.516 22.5965 129.04 21.0753 126.982 21.0753C124.574 21.0753 123.332 22.5965 122.904 24.9754H130.749ZM116.652 27.0812C116.652 21.1145 120.807 16.5518 126.865 16.5518C129.7 16.5518 131.953 17.4877 133.661 19.0476C136.03 21.2316 137.195 24.7023 137.156 28.7582H122.866C123.254 31.4489 124.729 33.1259 127.332 33.1259C129.001 33.1259 130.089 32.385 130.632 31.1371H136.807C136.38 32.9309 135.215 34.6468 133.467 35.8559C131.797 37.0257 129.778 37.6887 127.254 37.6887C120.691 37.6887 116.652 33.1259 116.652 27.0812Z" fill="black"/>
<path d="M67.7506 22.3234C70.236 22.3234 71.634 20.8414 71.634 18.6183C71.634 16.3957 70.197 15.0307 67.7506 15.0307H62.896V22.3234H67.7506ZM56.4875 9.21999H67.4798C70.8582 9.21999 73.3437 10.1559 75.0524 11.7939C76.8388 13.4706 77.8485 15.8497 77.8485 18.6575C77.8485 24.0002 74.1592 27.7832 68.4505 27.7832H62.896V37.1036H56.4875V9.21999Z" fill="black"/>
<path d="M47.7981 24.0001C47.7981 37.2548 37.0981 48 23.8992 48C10.7002 48 0.000244141 37.2548 0.000244141 24.0001C0.000244141 10.7451 10.7002 0.000148773 23.8992 0.000148773C37.0981 0.000148773 47.7981 10.7451 47.7981 24.0001Z" fill="white"/>
<path d="M23.8989 -9.53674e-05C10.7 -9.53674e-05 0 10.7451 0 23.9998C0 34.1674 6.29935 42.8593 15.1895 46.3562C14.9807 44.4574 14.7919 41.5371 15.2724 39.4641C15.7067 37.591 18.0748 27.5345 18.0748 27.5345C18.0748 27.5345 17.36 26.0968 17.36 23.9713C17.36 20.6341 19.2861 18.1427 21.6844 18.1427C23.7234 18.1427 24.7082 19.68 24.7082 21.5233C24.7082 23.5826 23.4027 26.6612 22.729 29.5143C22.1659 31.903 23.9218 33.8511 26.268 33.8511C30.5156 33.8511 33.7808 29.3533 33.7808 22.8609C33.7808 17.1145 29.6691 13.0969 23.798 13.0969C16.998 13.0969 13.0066 18.2188 13.0066 23.5121C13.0066 25.5749 13.7978 27.7868 14.7852 28.9892C14.9805 29.2268 15.0091 29.435 14.9509 29.6776C14.7695 30.4356 14.3664 32.0657 14.2872 32.3994C14.183 32.8387 13.9408 32.9319 13.4879 32.7202C10.5031 31.325 8.63689 26.9426 8.63689 23.4226C8.63689 15.8519 14.1144 8.89915 24.4279 8.89915C32.7184 8.89915 39.1612 14.8318 39.1612 22.7604C39.1612 31.0317 33.9679 37.6884 26.7597 37.6884C24.338 37.6884 22.0613 36.4249 21.282 34.9325C21.282 34.9325 20.0837 39.5148 19.7931 40.6378C19.2536 42.7224 17.7971 45.3354 16.8228 46.9295C19.0589 47.6248 21.4352 47.9998 23.8989 47.9998C37.0981 47.9998 47.798 37.2546 47.798 23.9998C47.798 10.7451 37.0981 -9.53674e-05 23.8989 -9.53674e-05Z" fill="black"/>
</svg>
