<svg width="200" height="140" viewBox="0 0 200 140" fill="none" xmlns="http://www.w3.org/2000/svg" id="image">
<mask id="mask0_19300_431" style="mask-type:alpha" maskUnits="userSpaceOnUse" x="0" y="0" width="200" height="140">
<path d="M0 0H200V140H0V0Z" fill="white"/>
</mask>
<g mask="url(#mask0_19300_431)">
<path fill-rule="evenodd" clip-rule="evenodd" d="M83.0443 15.3263C89.5001 8.59159 98.4854 4.42107 108.412 4.42107C121.647 4.42107 133.118 11.7895 139.294 22.7684C144.777 20.3124 150.715 19.0443 156.721 19.0474C180.544 19.0474 199.882 38.5737 199.882 62.6684C199.882 86.7632 180.544 106.289 156.721 106.289C153.809 106.289 150.971 105.996 148.191 105.442C142.787 115.095 132.456 121.653 120.691 121.653C115.901 121.662 111.173 120.573 106.868 118.469C101.39 131.364 88.6325 140.427 73.7795 140.427C58.2648 140.427 45.1031 130.627 40.0295 116.848C37.7714 117.326 35.4697 117.566 33.1619 117.565C14.706 117.565 -0.220459 102.386 -0.220459 83.7436C-0.220459 71.2173 6.50013 60.312 16.4707 54.4173C14.3555 49.5342 13.2667 44.2669 13.2722 38.9436C13.2722 17.4278 30.6987 0.0383301 52.1693 0.0383301C64.7428 0.0383301 75.9928 6.04359 83.0516 15.3646" fill="black"/>
<path fill-rule="evenodd" clip-rule="evenodd" d="M28.9266 72.8001C28.8008 73.1287 28.9714 73.1972 29.0119 73.2554C29.3876 73.5281 29.7692 73.7255 30.1516 73.9473C32.1957 75.0305 34.1222 75.3473 36.1369 75.3473C40.2398 75.3473 42.7913 73.1589 42.7913 69.6368V69.5675C42.7913 66.3107 39.9089 65.1244 37.2178 64.277L36.8655 64.1628C34.8288 63.5011 33.0714 62.9249 33.0714 61.5839V61.5153C33.0714 60.3659 34.1008 59.5185 35.6891 59.5185C37.4538 59.5185 39.5567 60.1072 40.9023 60.8522C40.9023 60.8522 41.3008 61.1101 41.4457 60.7247C41.5244 60.5162 42.2104 58.6763 42.2839 58.47C42.3619 58.2541 42.2251 58.0912 42.0847 58.0072C40.5405 57.0641 38.4082 56.423 36.2023 56.423L35.7928 56.4245C32.0354 56.4245 29.4104 58.7013 29.4104 61.9582V62.0282C29.4104 65.4619 32.3075 66.5819 35.0133 67.3555L35.4486 67.4911C37.4192 68.0983 39.1251 68.6258 39.1251 70.0111V70.0804C39.1251 71.3551 38.0148 72.3056 36.2354 72.3056C35.5435 72.3056 33.3383 72.2938 30.9486 70.7804C30.6597 70.6116 30.495 70.4901 30.2722 70.3537C30.1545 70.2823 29.8604 70.1533 29.7325 70.5394L28.9236 72.7942L28.9266 72.8001ZM88.9972 72.7942C88.8714 73.1228 89.042 73.1913 89.0839 73.2495C89.4582 73.5222 89.8413 73.7196 90.2236 73.9414C92.2678 75.0246 94.1942 75.3414 96.2089 75.3414C100.312 75.3414 102.863 73.153 102.863 69.6309V69.5616C102.863 66.3048 99.9883 65.1185 97.2898 64.2711L96.9376 64.1569C94.9008 63.4952 93.1435 62.919 93.1435 61.578V61.5094C93.1435 60.36 94.1729 59.5126 95.7611 59.5126C97.5258 59.5126 99.6214 60.1013 100.974 60.8463C100.974 60.8463 101.373 61.1042 101.518 60.7188C101.596 60.5103 102.283 58.6704 102.349 58.4641C102.428 58.2482 102.291 58.0853 102.151 58.0013C100.607 57.0582 98.4744 56.4171 96.2685 56.4171L95.8582 56.4186C92.1008 56.4186 89.4758 58.6954 89.4758 61.9523V62.0223C89.4758 65.456 92.3729 66.576 95.0788 67.3496L95.5133 67.4852C97.4913 68.0924 99.1898 68.62 99.1898 70.0052V70.0745C99.1898 71.3492 98.0795 72.2997 96.3001 72.2997C95.6067 72.2997 93.3957 72.288 91.0133 70.7745C90.7244 70.6057 90.5553 70.4893 90.3361 70.3479C90.2619 70.3007 89.9156 70.1651 89.7972 70.5335L88.9883 72.7883L88.9972 72.7942ZM130.018 65.8914C130.018 67.8809 129.647 69.4504 128.922 70.563C128.199 71.6609 127.106 72.1988 125.584 72.1988C124.062 72.1988 122.974 71.6653 122.26 70.5704C121.542 69.4651 121.18 67.8883 121.18 65.8988C121.18 63.9093 121.544 62.3472 122.26 61.2493C122.972 60.1588 124.055 59.6356 125.584 59.6356C127.113 59.6356 128.202 60.164 128.922 61.2493C129.652 62.3472 130.018 63.9093 130.018 65.8988V65.8914ZM133.444 62.2072C133.107 61.0651 132.584 60.063 131.885 59.223C131.186 58.383 130.305 57.7051 129.253 57.2188C128.209 56.7288 126.974 56.482 125.577 56.482C124.18 56.482 122.952 56.7303 121.9 57.2188C120.856 57.7081 119.966 58.383 119.268 59.223C118.571 60.063 118.047 61.0651 117.709 62.2072C117.374 63.342 117.205 64.5798 117.205 65.8988C117.205 67.2177 117.374 68.4556 117.709 69.5904C118.045 70.7325 118.569 71.7346 119.268 72.5746C119.967 73.4146 120.856 74.0851 121.9 74.5641C122.952 75.0415 124.187 75.2847 125.577 75.2847C126.966 75.2847 128.202 75.0415 129.246 74.5641C130.29 74.0866 131.18 73.4146 131.878 72.5746C132.576 71.7346 133.099 70.7325 133.437 69.5904C133.771 68.4556 133.941 67.2177 133.941 65.8988C133.941 64.5872 133.771 63.342 133.437 62.2072H133.444ZM161.599 71.6388C161.486 71.305 161.161 71.431 161.161 71.431C160.663 71.6219 160.132 71.7987 159.566 71.8871C158.995 71.977 158.36 72.022 157.691 72.022C156.036 72.022 154.713 71.5275 153.771 70.5483C152.823 69.5683 152.293 67.9914 152.301 65.8546C152.306 63.9093 152.775 62.4504 153.617 61.3304C154.448 60.2251 155.727 59.6504 157.419 59.6504C158.83 59.6504 159.911 59.8147 161.044 60.1698C161.044 60.1698 161.312 60.287 161.441 59.9326C161.741 59.1 161.963 58.5031 162.286 57.5894C162.377 57.3278 162.154 57.2173 162.072 57.1856C161.628 57.0117 160.58 56.7266 159.785 56.6065C159.043 56.493 158.182 56.4341 157.212 56.4341C155.771 56.4341 154.491 56.6809 153.396 57.1702C152.3 57.6587 151.374 58.3344 150.638 59.1744C149.903 60.0144 149.344 61.0165 148.969 62.1586C148.598 63.2933 148.41 64.5386 148.41 65.8575C148.41 68.7017 149.175 71.0081 150.69 72.6954C152.205 74.3902 154.484 75.2449 157.455 75.2449C159.212 75.2449 161.013 74.889 162.307 74.3754C162.307 74.3754 162.555 74.2561 162.447 73.9672L161.602 71.6388H161.599ZM167.594 63.9756C167.758 62.8704 168.06 61.9493 168.535 61.2346C169.246 60.1441 170.33 59.5472 171.852 59.5472C173.374 59.5472 174.381 60.147 175.102 61.2346C175.58 61.953 175.788 62.9072 175.866 63.9756L167.557 63.9742L167.594 63.9756ZM179.138 61.5441C178.846 60.4462 178.124 59.3335 177.653 58.8251C176.903 58.022 176.175 57.4546 175.447 57.1451C174.396 56.6973 173.266 56.4674 172.124 56.4694C170.675 56.4694 169.359 56.7148 168.293 57.2136C167.227 57.7162 166.33 58.4 165.624 59.2547C164.919 60.1094 164.388 61.1189 164.05 62.2757C163.712 63.4178 163.541 64.6705 163.541 65.9821C163.541 67.3231 163.718 68.5684 164.067 69.6957C164.419 70.8305 164.986 71.8252 165.751 72.6505C166.516 73.4831 167.493 74.1315 168.67 74.5884C169.839 75.0415 171.258 75.2766 172.883 75.2714C176.236 75.2604 178.001 74.5125 178.721 74.1072C178.85 74.035 178.971 73.9105 178.82 73.5516L178.063 71.4222C177.946 71.1046 177.626 71.2195 177.626 71.2195C176.795 71.5305 175.618 72.089 172.861 72.0816C171.06 72.0787 169.729 71.546 168.891 70.7111C168.038 69.8564 167.611 68.6111 167.545 66.8427L179.163 66.8515C179.163 66.8515 179.468 66.8486 179.5 66.5494C179.513 66.4256 179.898 64.1621 179.154 61.5463L179.138 61.5441ZM74.7266 63.9756C74.8906 62.8704 75.1935 61.9493 75.6678 61.2346C76.3795 60.1441 77.4619 59.5472 78.9839 59.5472C80.506 59.5472 81.5133 60.147 82.2339 61.2346C82.7111 61.953 82.92 62.9072 82.9986 63.9756L74.6898 63.9742L74.7266 63.9756ZM86.2707 61.5441C85.9795 60.4462 85.256 59.3335 84.7854 58.8251C84.0354 58.022 83.3075 57.4546 82.5795 57.1451C81.5286 56.6973 80.398 56.4674 79.256 56.4694C77.8075 56.4694 76.4913 56.7148 75.4251 57.2136C74.3589 57.7162 73.4619 58.4 72.756 59.2547C72.0523 60.1094 71.5207 61.1189 71.1825 62.2757C70.845 63.4178 70.6751 64.6705 70.6751 65.9821C70.6751 67.3231 70.8508 68.5684 71.2016 69.6957C71.5531 70.8305 72.1207 71.8252 72.8781 72.6505C73.6428 73.4831 74.6207 74.1315 75.7972 74.5884C76.9663 75.0415 78.3781 75.2766 80.0104 75.2714C83.3633 75.2604 85.1281 74.5125 85.8486 74.1072C85.9766 74.035 86.0986 73.9105 85.9464 73.5516L85.1891 71.4222C85.0722 71.1046 84.7516 71.2195 84.7516 71.2195C83.9207 71.5305 82.7442 72.089 79.9869 72.0816C78.1928 72.0787 76.8545 71.546 76.0163 70.7111C75.1633 69.8564 74.7369 68.6111 74.6707 66.8427L86.2883 66.8515C86.2883 66.8515 86.5942 66.8486 86.6258 66.5494C86.6383 66.4256 87.0236 64.1621 86.2788 61.5463L86.2707 61.5441ZM49.653 71.5651C49.1979 71.2011 49.1347 71.112 48.9839 70.8754C48.7538 70.5195 48.6361 70.0133 48.6361 69.3649C48.6361 68.3481 48.9744 67.6112 49.6729 67.1175C49.6655 67.119 50.6729 66.2481 53.0406 66.2775C54.0944 66.2964 55.1458 66.3863 56.1876 66.5465V71.8296H56.1891C56.1891 71.8296 54.7185 72.1472 53.0567 72.2474C50.6964 72.3896 49.6523 71.5666 49.6597 71.5688L49.653 71.5651ZM54.2707 63.3862C53.8001 63.3515 53.1898 63.3346 52.4619 63.3346C51.4692 63.3346 50.506 63.4584 49.6089 63.7015C48.7045 63.9462 47.8883 64.3249 47.1898 64.8289C46.4894 65.3297 45.9132 65.9852 45.506 66.7447C45.095 67.511 44.8854 68.41 44.8854 69.4268C44.8854 70.4584 45.0641 71.35 45.417 72.0794C45.7629 72.803 46.2835 73.4286 46.9317 73.8994C47.5766 74.3695 48.3729 74.7173 49.292 74.9236C50.2038 75.1322 51.2332 75.2375 52.3656 75.2375C53.5567 75.2375 54.7406 75.1373 55.8876 74.9435C56.8646 74.7747 57.8378 74.585 58.8067 74.3747C59.1935 74.2855 59.6229 74.1684 59.6229 74.1684C59.9097 74.0954 59.8876 73.7882 59.8876 73.7882L59.881 63.1776C59.881 60.8492 59.2604 59.1176 58.0354 58.0492C56.8148 56.9808 55.0281 56.4429 52.7119 56.4429C51.8442 56.4429 50.4398 56.5608 49.6016 56.7295C49.6016 56.7295 47.0722 57.2217 46.0281 58.0411C46.0281 58.0411 45.7986 58.1826 45.9236 58.5031L46.7472 60.7136C46.8494 61.0003 47.128 60.9023 47.128 60.9023C47.128 60.9023 47.2156 60.8676 47.3185 60.8065C49.5464 59.5907 52.37 59.6275 52.37 59.6275C53.62 59.6275 54.5905 59.8817 55.2376 60.3791C55.8707 60.8662 56.1935 61.6023 56.1935 63.1496V63.6411C55.2008 63.4967 54.2817 63.4134 54.2817 63.4134L54.2707 63.3862ZM147.653 57.3956C147.67 57.3568 147.679 57.3149 147.679 57.2726C147.679 57.2303 147.671 57.1884 147.655 57.1493C147.638 57.1103 147.614 57.0749 147.584 57.0453C147.554 57.0157 147.518 56.9925 147.479 56.9771C147.281 56.902 146.295 56.6934 145.538 56.6463C144.082 56.5549 143.273 56.801 142.545 57.1282C141.826 57.4531 141.03 57.9755 140.589 58.5797L140.588 57.165C140.588 56.9705 140.45 56.8135 140.255 56.8135H137.284C137.091 56.8135 136.952 56.9705 136.952 57.165V74.4808C136.952 74.5743 136.989 74.664 137.055 74.7302C137.121 74.7963 137.21 74.8335 137.304 74.8337H140.348C140.441 74.8335 140.531 74.7963 140.596 74.7301C140.662 74.6639 140.699 74.5743 140.699 74.4808V65.7861C140.699 64.6218 140.827 63.465 141.082 62.7355C141.334 62.0142 141.676 61.4387 142.097 61.0261C142.499 60.6275 142.991 60.3318 143.531 60.164C144.038 60.0182 144.563 59.9443 145.09 59.9444C145.696 59.9444 146.362 60.1006 146.362 60.1006C146.585 60.1256 146.71 59.9886 146.785 59.7867C146.985 59.2554 147.55 57.6646 147.66 57.3477" fill="#FFFFFE"/>
<path fill-rule="evenodd" clip-rule="evenodd" d="M119.221 49.4037C118.845 49.2897 118.462 49.1987 118.075 49.131C117.554 49.0439 117.027 49.003 116.499 49.0087C114.401 49.0087 112.747 49.6026 111.586 50.7757C110.433 51.9399 109.649 53.7134 109.255 56.047L109.113 56.8347H106.48C106.48 56.8347 106.159 56.8214 106.091 57.1729L105.659 59.5898C105.629 59.8211 105.728 59.9655 106.037 59.9641H108.6L105.999 74.5116C105.796 75.6831 105.563 76.6469 105.305 77.3771C105.05 78.0978 104.802 78.6379 104.496 79.0299C104.199 79.4093 103.918 79.6886 103.434 79.8514C103.034 79.9863 102.574 80.0482 102.069 80.0482C101.788 80.0482 101.415 80.001 101.139 79.9458C100.863 79.8912 100.72 79.8293 100.513 79.7424C100.513 79.7424 100.213 79.6274 100.094 79.9296C99.9979 80.1764 99.3148 82.059 99.2339 82.2919C99.1516 82.5218 99.267 82.703 99.4126 82.7553C99.7538 82.8777 100.007 82.9558 100.472 83.0656C101.118 83.2181 101.662 83.2277 102.171 83.2277C103.239 83.2277 104.212 83.0773 105.018 82.7855C105.83 82.4916 106.537 81.9794 107.162 81.2861C107.838 80.5382 108.263 79.7549 108.669 78.6865C109.071 77.6277 109.414 76.3131 109.688 74.7812L112.302 59.9641H116.122C116.122 59.9641 116.444 59.9759 116.511 59.6259L116.943 57.209C116.974 56.9777 116.875 56.8332 116.565 56.8347H112.857C112.875 56.7507 113.043 55.4435 113.469 54.213C113.651 53.6877 113.993 53.264 114.282 52.9729C114.553 52.6957 114.886 52.488 115.254 52.3672C115.657 52.2424 116.077 52.1817 116.499 52.1874C116.848 52.1874 117.191 52.2294 117.452 52.284C117.811 52.3606 117.951 52.4011 118.045 52.4291C118.423 52.5448 118.474 52.4328 118.548 52.2493L119.435 49.8089C119.526 49.5466 119.304 49.4361 119.221 49.4037ZM67.4023 74.5425C67.4023 74.737 67.2641 74.8954 67.07 74.8954H63.9942C63.7994 74.8954 63.6611 74.737 63.6611 74.5425V49.7345C63.6611 49.5407 63.7994 49.3838 63.9942 49.3838H67.07C67.2641 49.3838 67.4023 49.5407 67.4023 49.7345V74.5425Z" fill="#FFFFFE"/>
</g>
</svg>
