<svg width="200" height="58" viewBox="0 0 200 58" fill="none" xmlns="http://www.w3.org/2000/svg" id="image">
<path d="M42.9995 11.3385C42.9668 11.0447 42.7054 10.9141 42.5094 10.9141C42.3133 10.9141 38.033 10.5876 38.033 10.5876C38.033 10.5876 35.0596 7.61683 34.7002 7.32302C34.3734 6.99656 33.7526 7.0945 33.4912 7.15979C33.4586 7.15979 32.8378 7.35567 31.8248 7.68213C30.8119 4.77663 29.0802 2.1323 25.9761 2.1323H25.6821C24.8325 1.02234 23.7216 0.5 22.8067 0.5C15.6184 0.5 12.1549 9.47766 11.0766 14.0481C8.26662 14.9295 6.27348 15.5172 6.04476 15.6151C4.47639 16.1048 4.44372 16.1374 4.24767 17.6065C4.0843 18.7165 0 50.2852 0 50.2852L31.7922 56.2268L49.0442 52.5051C49.0769 52.4398 43.0322 11.6323 42.9995 11.3385ZM30.0604 8.13917C29.2762 8.36769 28.3287 8.66151 27.3811 8.98797V8.40034C27.3811 6.63745 27.1524 5.20103 26.7276 4.05842C28.3614 4.25429 29.3743 6.04982 30.0604 8.13917ZM24.7345 4.41752C25.1593 5.52749 25.4533 7.0945 25.4533 9.24913V9.57559C23.6889 10.1306 21.8265 10.6856 19.8987 11.3058C20.977 7.19243 23.0354 5.16838 24.7345 4.41752ZM22.6433 2.39347C22.9701 2.39347 23.2968 2.52405 23.5582 2.71993C21.2383 3.79725 18.7878 6.50687 17.7749 11.9914C16.2392 12.4811 14.7688 12.9055 13.3638 13.3625C14.5401 9.18384 17.4808 2.39347 22.6433 2.39347Z" fill="black"/>
<path d="M42.5096 10.849C42.3135 10.849 38.0332 10.5225 38.0332 10.5225C38.0332 10.5225 35.0598 7.5517 34.7004 7.25789C34.5697 7.1273 34.4063 7.06201 34.2756 7.06201L31.8904 56.227L49.1425 52.5053C49.1425 52.5053 43.0977 11.6325 43.0651 11.3386C42.9344 11.0448 42.7056 10.9142 42.5096 10.849Z" fill="#8E8E8E"/>
<path d="M25.9763 20.3815L23.8851 26.6822C23.8851 26.6822 21.99 25.6702 19.7355 25.6702C16.37 25.6702 16.2066 27.7922 16.2066 28.3145C16.2066 31.1874 23.7217 32.2973 23.7217 39.0551C23.7217 44.3764 20.3563 47.8042 15.8145 47.8042C10.3252 47.8042 7.58057 44.409 7.58057 44.409L9.05092 39.5774C9.05092 39.5774 11.9263 42.0585 14.3442 42.0585C15.9452 42.0585 16.5987 40.8179 16.5987 39.9039C16.5987 36.1496 10.4559 35.9863 10.4559 29.7836C10.4559 24.5929 14.1808 19.5654 21.7286 19.5654C24.5386 19.5327 25.9763 20.3815 25.9763 20.3815Z" fill="white"/>
<path d="M69.1716 32.2319C67.4399 31.3178 66.5576 30.5017 66.5576 29.4243C66.5576 28.0532 67.7993 27.1718 69.7271 27.1718C71.9816 27.1718 73.9747 28.0859 73.9747 28.0859L75.5431 23.2869C75.5431 23.2869 74.1054 22.1769 69.8578 22.1769C63.9437 22.1769 59.8267 25.5721 59.8267 30.3384C59.8267 33.0481 61.7545 35.1048 64.3031 36.5738C66.3943 37.7164 67.1131 38.5652 67.1131 39.8058C67.1131 41.079 66.0675 42.1237 64.1397 42.1237C61.2971 42.1237 58.5851 40.6546 58.5851 40.6546L56.9187 45.4536C56.9187 45.4536 59.402 47.1185 63.5843 47.1185C69.6617 47.1185 74.0728 44.1151 74.0728 38.7285C74.0074 35.7903 71.8182 33.7663 69.1716 32.2319ZM93.416 22.1116C90.41 22.1116 88.0574 23.5481 86.2603 25.7027L86.195 25.6701L88.8089 12.0893H82.0453L75.4451 46.6941H82.2087L84.4632 34.8762C85.3454 30.4037 87.6653 27.6288 89.8218 27.6288C91.3575 27.6288 91.9457 28.6735 91.9457 30.1426C91.9457 31.0567 91.8803 32.2319 91.6516 33.146L89.103 46.6941H95.8666L98.5132 32.7216C98.8073 31.2525 99.0033 29.4896 99.0033 28.2817C98.9707 24.3969 96.9775 22.1116 93.416 22.1116ZM114.295 22.1116C106.126 22.1116 100.735 29.457 100.735 37.6512C100.735 42.8745 103.97 47.1185 110.047 47.1185C118.053 47.1185 123.444 39.969 123.444 31.579C123.476 26.7147 120.666 22.1116 114.295 22.1116ZM110.962 41.9604C108.642 41.9604 107.695 40.0017 107.695 37.5206C107.695 33.6357 109.688 27.335 113.38 27.335C115.765 27.335 116.582 29.4243 116.582 31.4158C116.582 35.5618 114.524 41.9604 110.962 41.9604ZM140.794 22.1116C136.219 22.1116 133.638 26.1597 133.638 26.1597H133.573L133.965 22.536H127.953C127.659 24.9845 127.103 28.7388 126.581 31.5137L121.908 56.292H128.672L130.567 46.2697H130.73C130.73 46.2697 132.135 47.1511 134.684 47.1511C142.656 47.1511 147.852 38.9896 147.852 30.7628C147.819 26.1924 145.76 22.1116 140.794 22.1116ZM134.324 42.0257C132.56 42.0257 131.514 41.0137 131.514 41.0137L132.625 34.713C133.409 30.469 135.631 27.6941 137.984 27.6941C140.075 27.6941 140.696 29.6202 140.696 31.4158C140.729 35.7903 138.115 42.0257 134.324 42.0257ZM157.491 12.4158C155.334 12.4158 153.602 14.146 153.602 16.3333C153.602 18.3247 154.877 19.7285 156.804 19.7285H156.87C158.994 19.7285 160.791 18.292 160.823 15.8109C160.856 13.8195 159.516 12.4158 157.491 12.4158ZM148.015 46.6615H154.779L159.353 22.634H152.557L148.015 46.6615ZM176.605 22.6013H171.9L172.129 21.4914C172.521 19.1735 173.893 17.1494 176.18 17.1494C177.389 17.1494 178.337 17.5085 178.337 17.5085L179.644 12.1872C179.644 12.1872 178.5 11.5996 175.952 11.5996C173.566 11.5996 171.148 12.2852 169.319 13.8522C166.999 15.8109 165.921 18.6512 165.398 21.524L165.202 22.634H162.032L161.019 27.7594H164.189L160.595 46.6941H167.358L170.952 27.7594H175.625L176.605 22.6013ZM192.91 22.634C192.91 22.634 188.662 33.3092 186.799 39.1529H186.734C186.603 37.2594 185.068 22.634 185.068 22.634H177.945L182.029 44.6374C182.094 45.1271 182.062 45.4209 181.866 45.7474C181.081 47.2817 179.742 48.7508 178.173 49.8281C176.899 50.7422 175.461 51.3625 174.318 51.7542L176.213 57.5C177.585 57.2061 180.461 56.0635 182.846 53.8109C185.917 50.9381 188.793 46.4656 191.733 40.3934L200 22.6013H192.91V22.634Z" fill="black"/>
</svg>
