<svg width="200" height="62" viewBox="0 0 200 62" fill="none" xmlns="http://www.w3.org/2000/svg" id="image">
<path d="M79.6973 47.8257V42.829C80.3033 43.3389 80.9094 43.7468 81.7175 44.1547C82.5255 44.5625 83.3336 44.8685 84.2427 45.1744C85.1518 45.4803 85.9599 45.6843 86.869 45.7862C87.7781 45.8882 88.5862 45.9902 89.2932 45.9902C91.8185 45.9902 93.7377 45.4803 95.0508 44.5625C96.3639 43.6448 96.97 42.2172 96.97 40.3816C96.97 39.3619 96.768 38.5461 96.3639 37.8323C95.9599 37.1185 95.3538 36.4046 94.6468 35.8948C93.9397 35.2829 93.0306 34.7731 92.0205 34.1612C91.0104 33.6514 89.8993 33.0395 88.7882 32.4277C87.5761 31.8158 86.3639 31.102 85.3538 30.4902C84.2427 29.8783 83.3336 29.1645 82.5256 28.3487C81.7175 27.5329 81.1114 26.7171 80.6064 25.6974C80.1013 24.6777 79.8993 23.556 79.8993 22.2303C79.8993 20.5987 80.3033 19.1711 81.0104 17.9474C81.7175 16.7237 82.6266 15.704 83.8387 14.9902C84.9498 14.1744 86.2629 13.6645 87.7781 13.2566C89.2932 12.8487 90.8084 12.6448 92.3235 12.6448C95.8589 12.6448 98.3841 13.0527 100 13.9704V18.7632C97.8791 17.3356 95.2528 16.5198 91.9195 16.5198C91.0104 16.5198 90.1013 16.6218 89.1922 16.8257C88.2831 17.0296 87.475 17.3356 86.768 17.7435C86.0609 18.1514 85.4548 18.7632 85.0508 19.477C84.6468 20.1908 84.3437 21.0066 84.3437 22.0264C84.3437 22.9441 84.5458 23.7599 84.8488 24.3718C85.1518 25.0856 85.6569 25.6974 86.3639 26.2073C87.071 26.7171 87.8791 27.329 88.7882 27.8389C89.6973 28.3487 90.8084 28.9606 92.0205 29.5724C93.3336 30.1843 94.5458 30.8981 95.6569 31.6119C96.768 32.3257 97.7781 33.1415 98.6872 33.9573C99.5963 34.7731 100.202 35.7928 100.707 36.8125C101.212 37.8323 101.414 39.056 101.414 40.3816C101.414 42.1152 101.111 43.6448 100.404 44.8685C99.6973 46.0922 98.7882 47.1119 97.6771 47.8257C96.465 48.6415 95.1518 49.1514 93.6367 49.4573C92.1215 49.7632 90.5054 49.9672 88.7882 49.9672C88.1821 49.9672 87.5761 49.9672 86.667 49.8652C85.8589 49.7632 84.9498 49.6612 84.1417 49.4573C83.3336 49.2533 82.4245 49.0494 81.7175 48.8454C80.7074 48.4375 80.1013 48.1316 79.6973 47.8257Z" fill="black"/>
<path d="M125.858 49.2533H120.101L108.989 36.9145H108.888V49.2533H104.747V11.1151H108.888V35.2829H108.989L119.596 23.4539H124.949L113.131 35.8947L125.858 49.2533Z" fill="black"/>
<path d="M149.798 23.454L138.182 53.3323C136.06 58.635 133.131 61.2863 129.394 61.2863C128.384 61.2863 127.475 61.1843 126.768 60.9803V57.3093C127.677 57.6152 128.485 57.7172 129.192 57.7172C131.212 57.7172 132.727 56.4935 133.838 54.0461L135.858 49.1514L125.959 23.454H130.505L137.374 43.2369C137.475 43.4409 137.677 44.1547 137.879 45.1744H137.98C138.081 44.7665 138.182 44.1547 138.485 43.2369L145.656 23.3521H149.798V23.454Z" fill="black"/>
<path d="M156.161 35.181V38.7501C156.161 40.8915 156.869 42.727 158.182 44.1547C159.596 45.6843 161.313 46.3981 163.333 46.3981C165.757 46.3981 167.677 45.4803 169.091 43.5428C170.505 41.6053 171.212 38.954 171.212 35.5889C171.212 32.7336 170.606 30.4902 169.293 28.8586C167.98 27.227 166.263 26.4112 164.04 26.4112C161.717 26.4112 159.798 27.227 158.384 28.9606C156.869 30.4902 156.161 32.6316 156.161 35.181ZM156.263 45.4803L156.161 61.0823H152.121V23.454H156.161V27.9408H156.263C158.283 24.4737 161.212 22.8422 165.05 22.8422C168.283 22.8422 170.909 23.9639 172.727 26.3093C174.545 28.6547 175.454 31.7139 175.454 35.5889C175.454 39.8718 174.444 43.3389 172.323 45.8882C170.303 48.4376 167.475 49.7632 163.838 49.7632C160.606 49.8652 157.98 48.4376 156.263 45.4803Z" fill="black"/>
<path d="M195.859 33.9573C195.859 31.6119 195.253 29.6744 194.142 28.3487C193.03 27.023 191.515 26.4112 189.495 26.4112C187.576 26.4112 185.96 27.125 184.647 28.4507C183.333 29.8783 182.525 31.6119 182.121 33.9573H195.859ZM200 37.4244H182.121C182.222 40.2796 182.929 42.523 184.445 44.0527C185.859 45.5823 187.879 46.398 190.404 46.398C193.232 46.398 195.859 45.4803 198.283 43.5428V47.4178C196.061 49.0494 193.131 49.8652 189.394 49.8652C185.859 49.8652 183.03 48.7434 180.909 46.398C178.889 44.0527 177.879 40.7895 177.879 36.5066C177.879 32.5296 178.99 29.2665 181.212 26.7171C183.434 24.1678 186.263 22.9441 189.596 22.9441C192.929 22.9441 195.455 24.0658 197.273 26.2072C199.091 28.3487 200 31.4079 200 35.2829V37.4244Z" fill="black"/>
<path d="M30.6061 49.7632C20.404 49.7632 15.7576 44.5625 15.7576 40.6875C15.7576 38.75 17.2727 37.3224 19.2929 37.3224C23.6364 37.3224 22.5252 43.9507 30.7071 43.9507C34.8485 43.9507 37.2727 41.4013 37.2727 39.0559C37.2727 37.6283 36.4646 35.9967 33.7374 35.3849L24.6465 33.0395C17.3737 31.204 16.0606 27.023 16.0606 23.25C16.0606 15.398 23.2323 12.5428 30 12.5428C36.2626 12.5428 43.7374 16.0099 43.7374 20.8026C43.7374 22.8421 42.0202 23.9638 40.101 23.9638C36.3636 23.9638 36.9697 18.6612 29.4949 18.6612C25.7576 18.6612 23.8384 20.3947 23.8384 22.8421C23.8384 25.2895 26.7677 26.1053 29.2929 26.7171L35.9596 28.2467C43.3333 29.8783 45.2525 34.2632 45.2525 38.4441C45.2525 44.7664 40.303 49.7632 30.6061 49.7632ZM58.7879 36.0987C59.0909 34.4671 59.1919 32.7336 59.1919 31C59.1919 14.8882 46.3636 1.83553 30.505 1.83553C28.7879 1.83553 27.1717 1.9375 25.5555 2.24342C23.0303 0.81579 20.202 0 17.0707 0C7.67676 0 0 7.75 0 17.3355C0 20.4967 0.80808 23.352 2.22222 25.9013C1.91919 27.5329 1.81818 29.2664 1.81818 31C1.81818 47.1118 14.6465 60.1645 30.505 60.1645C32.2222 60.1645 33.8384 60.0625 35.4545 59.7566C37.9798 61.1842 40.8081 62 43.9394 62C53.3333 62 61.0101 54.25 61.0101 44.6645C61.0101 41.6053 60.202 38.648 58.7879 36.0987Z" fill="black"/>
</svg>
