<svg width="200" height="114" viewBox="0 0 200 114" fill="none" xmlns="http://www.w3.org/2000/svg" id="image">
<path d="M2.26503 51.9437C1.84771 51.9437 1.51649 52.2664 1.46253 52.7266L0 63.8349L1.46253 74.7519C1.51649 75.212 1.84751 75.5325 2.26503 75.5325C2.66921 75.5325 2.99842 75.2143 3.06289 74.756L4.79642 63.8347L3.06289 52.7243C3.00044 52.2662 2.66719 51.9437 2.26503 51.9437ZM10.4899 45.8745C10.421 45.3972 10.0791 45.068 9.65751 45.068C9.23372 45.068 8.8831 45.4079 8.8251 45.8745C8.8251 45.8787 6.85916 63.8349 6.85916 63.8349L8.8251 81.3975C8.88107 81.8685 9.2317 82.2084 9.65751 82.2084C10.0768 82.2084 10.419 81.8772 10.4877 81.402L12.7244 63.8349L10.4899 45.8745ZM41.4712 29.3077C40.6647 29.3077 39.9978 29.9679 39.9592 30.8067L38.3934 63.8499L39.9592 85.2042C40 86.0385 40.6647 86.6967 41.4712 86.6967C42.2735 86.6967 42.9382 86.0363 42.9855 85.1999V85.2064L44.7556 63.8499L42.9855 30.8067C42.938 29.9679 42.2733 29.3077 41.4712 29.3077ZM25.4363 40.7923C24.8169 40.7923 24.3115 41.287 24.2618 41.9472L22.4981 63.8412L24.2618 85.0233C24.3091 85.6792 24.8167 86.1739 25.4363 86.1739C26.0493 86.1739 26.5547 85.6792 26.6087 85.0233L28.6132 63.8412L26.6087 41.9427C26.5547 41.287 26.0493 40.7923 25.4363 40.7923ZM57.7664 86.6946C58.7665 86.6946 59.5796 85.888 59.6204 84.8556L61.1563 63.8606L59.6226 19.868C59.5818 18.8356 58.7686 18.0292 57.7686 18.0292C56.7598 18.0292 55.9448 18.8379 55.9122 19.8703L54.5507 63.8584L55.9122 84.862C55.9445 85.886 56.7596 86.6946 57.7664 86.6946ZM91.1265 86.7937C92.5032 86.7937 93.6389 85.6602 93.6646 84.2665L94.7358 63.8735L93.6644 13.0654C93.6407 11.674 92.5029 10.5385 91.1263 10.5385C89.7476 10.5385 88.6099 11.672 88.5882 13.0677L87.6311 63.8563C87.6311 63.8887 88.5882 84.2793 88.5882 84.2793C88.6101 85.66 89.7499 86.7937 91.1265 86.7937ZM74.3194 86.7141C75.5176 86.7141 76.4832 85.7526 76.5156 84.5268V84.5418L77.8188 63.865L76.5133 19.5542C76.481 18.3282 75.5154 17.3692 74.3172 17.3692C73.1105 17.3692 72.1449 18.3284 72.1191 19.5542L70.9599 63.8673L72.1213 84.5397C72.1472 85.7526 73.1128 86.7141 74.3194 86.7141ZM33.4226 86.5205C34.1345 86.5205 34.7111 85.9504 34.7648 85.1999L36.6534 63.8414L34.7648 43.5237C34.7133 42.7732 34.1369 42.2074 33.4226 42.2074C32.7001 42.2074 32.1235 42.7773 32.0785 43.5324L30.4157 63.8414L32.0785 85.1979C32.1257 85.9504 32.6999 86.5205 33.4226 86.5205ZM17.5148 85.3505C18.0352 85.3505 18.4567 84.9397 18.517 84.3718L20.6377 63.8369L18.519 42.5279C18.4565 41.9581 18.035 41.5471 17.5146 41.5471C16.9875 41.5471 16.566 41.9601 16.5122 42.5279L14.6453 63.8369L16.5122 84.3676C16.564 84.9374 16.9855 85.3505 17.5148 85.3505ZM82.6908 18.8165C81.3896 18.8165 80.3462 19.8511 80.3205 21.1759L79.2624 63.8693L80.3205 84.4126C80.3464 85.7203 81.3874 86.7549 82.6908 86.7549C83.9899 86.7549 85.0268 85.7225 85.0567 84.3977V84.4149L86.244 63.8715L85.0567 21.1714C85.0266 19.8511 83.9897 18.8165 82.6908 18.8165ZM49.5886 86.7377C50.4877 86.7377 51.2298 86.0042 51.2728 85.0686L52.9247 63.8561L51.2728 23.2554C51.2276 22.3176 50.4877 21.5865 49.5886 21.5865C48.681 21.5865 47.9412 22.3198 47.9023 23.2554L46.4398 63.8561L47.9046 85.0773C47.941 86.0042 48.6808 86.7377 49.5886 86.7377ZM68.0346 84.7354V84.7244L69.4541 63.8628L68.0346 18.3885C68.0001 17.2595 67.1096 16.3734 66.0105 16.3734C64.9048 16.3734 64.0144 17.2573 63.9845 18.3885L62.7241 63.8606L63.9865 84.7331C64.0167 85.8514 64.9073 86.7353 66.0107 86.7353C67.1119 86.7353 67.998 85.8514 68.0348 84.7267L68.0346 84.7354ZM175.402 37.6501C172.032 37.6501 168.816 38.3319 165.887 39.5599C163.929 17.3906 145.337 0 122.658 0C117.109 0 111.7 1.09261 106.923 2.93996C105.066 3.65833 104.572 4.39812 104.554 5.83264V83.9028C104.574 85.4083 105.742 86.6621 107.211 86.8106C107.273 86.8171 174.961 86.8515 175.4 86.8515C188.985 86.8515 200 75.8377 200 62.2519C200 48.6659 188.987 37.6501 175.402 37.6501ZM99.5256 5.76394C98.0479 5.76394 96.835 6.97698 96.8133 8.46727L95.7035 63.88L96.8156 83.9911C96.835 85.4602 98.0481 86.671 99.5256 86.671C100.999 86.671 102.212 85.4602 102.233 83.9697V83.9933L103.44 63.88L102.233 8.46303C102.212 6.97698 100.999 5.76394 99.5256 5.76394ZM19.8657 102.489C16.9556 101.805 16.1683 101.44 16.1683 100.287C16.1683 99.4742 16.8242 98.6331 18.7902 98.6331C20.47 98.6331 21.7821 99.3147 22.9609 100.521L25.6087 97.9536C23.8774 96.1448 21.7801 95.0694 18.9238 95.0694C15.3017 95.0694 12.3657 97.1148 12.3657 100.446C12.3657 104.063 14.7276 105.139 18.1087 105.924C21.5693 106.709 22.1997 107.236 22.1997 108.417C22.1997 109.806 21.1736 110.41 19.0012 110.41C17.244 110.41 15.5921 109.808 14.306 108.309L11.6578 110.671C13.0472 112.716 15.7251 114 18.79 114C23.8016 114 26.004 111.641 26.004 108.154C26.0042 104.167 22.7778 103.171 19.8657 102.489ZM36.7585 95.0694C31.7513 95.0694 28.7894 98.9494 28.7894 104.535C28.7894 110.12 31.7511 113.998 36.7585 113.998C41.7659 113.998 44.7318 110.12 44.7318 104.535C44.7318 98.9494 41.7659 95.0694 36.7585 95.0694ZM36.7585 110.357C33.7968 110.357 32.5621 107.812 32.5621 104.537C32.5621 101.259 33.7966 98.7148 36.7585 98.7148C39.7246 98.7148 40.9549 101.259 40.9549 104.537C40.9549 107.812 39.7246 110.357 36.7585 110.357ZM59.5494 105.664C59.5494 108.599 58.1041 110.41 55.7726 110.41C53.4388 110.41 52.0234 108.548 52.0234 105.612V95.3555H48.3498V105.664C48.3498 111.011 51.3417 114 55.7724 114C60.4398 114 63.2208 110.931 63.2208 105.612V95.3555H59.5494V105.664ZM79.0579 103.12C79.0579 104.143 79.1094 106.449 79.1094 107.131C78.8729 106.657 78.2707 105.741 77.8253 105.057L71.319 95.3535H67.8065V113.712H71.4265V105.634C71.4265 104.61 71.3748 102.304 71.3748 101.623C71.6092 102.094 72.2157 103.012 72.6589 103.696L79.3996 113.712H82.6775V95.3533H79.0577L79.0579 103.12ZM93.1397 95.3555H87.3969V113.714H92.875C97.5962 113.714 102.266 110.985 102.266 104.535C102.266 97.8202 98.3836 95.3555 93.1397 95.3555ZM92.875 110.148H91.0685V98.9235H93.0086C96.8909 98.9235 98.4913 100.784 98.4913 104.535C98.4911 107.892 96.7317 110.148 92.875 110.148ZM113.62 98.7128C115.272 98.7128 116.322 99.4483 116.978 100.706L120.387 99.1343C119.232 96.749 117.133 95.0694 113.672 95.0694C108.877 95.0694 105.518 98.9494 105.518 104.535C105.518 110.329 108.742 113.998 113.54 113.998C116.872 113.998 119.075 112.452 120.333 109.855L117.24 108.019C116.27 109.647 115.298 110.355 113.646 110.355C110.893 110.355 109.292 107.836 109.292 104.535C109.291 101.128 110.869 98.7128 113.62 98.7128ZM127.237 95.3555H123.566V113.714H134.6V110.092H127.237V95.3555ZM144.272 95.0694C139.261 95.0694 136.299 98.9494 136.299 104.535C136.299 110.12 139.261 113.998 144.272 113.998C149.28 113.998 152.244 110.12 152.244 104.535C152.244 98.9494 149.28 95.0694 144.272 95.0694ZM144.272 110.357C141.306 110.357 140.076 107.812 140.076 104.537C140.076 101.259 141.306 98.7148 144.272 98.7148C147.232 98.7148 148.464 101.259 148.464 104.537C148.464 107.812 147.232 110.357 144.272 110.357ZM167.059 105.664C167.059 108.599 165.62 110.41 163.286 110.41C160.948 110.41 159.535 108.548 159.535 105.612V95.3555H155.864V105.664C155.864 111.011 158.854 114 163.286 114C167.954 114 170.733 110.931 170.733 105.612V95.3555H167.059V105.664ZM181.064 95.3555H175.323V113.714H180.801C185.524 113.714 190.19 110.985 190.19 104.535C190.19 97.8202 186.309 95.3555 181.064 95.3555ZM180.801 110.148H178.992V98.9235H180.934C184.812 98.9235 186.412 100.784 186.412 104.535C186.413 107.892 184.655 110.148 180.801 110.148Z" fill="black"/>
</svg>
