<svg width="200" height="68"  fill="none" xmlns="http://www.w3.org/2000/svg" id="image">
<symbol viewBox="0 0 200 68" id="wix">
<path d="M74.3706 0.498852C73.1183 0.498852 71.8703 0.494658 70.6181 0.494658C67.6515 0.48837 64.9138 2.75203 62.8233 4.54619C60.8189 6.35921 58.9952 8.35668 57.3711 10.5155C56.7618 8.89116 56.0264 7.31498 55.1713 5.79959C54.6307 4.68744 53.8598 3.70233 52.9095 2.90928C51.9591 2.11624 50.851 1.53328 49.6582 1.19891C48.4232 1.03165 47.1745 0.988813 45.931 1.07105C44.8847 1.06686 41.9117 1.07105 41.9117 1.07105C41.9117 1.07105 38.9345 1.06686 37.8903 1.07105C36.6468 0.988813 35.398 1.03165 34.1631 1.19891C32.9703 1.53328 31.8622 2.11624 30.9118 2.90928C29.9615 3.70233 29.1906 4.68744 28.65 5.79959C27.8007 7.31192 27.0708 8.88798 26.467 10.5134C24.8429 8.35459 23.0171 6.35712 21.0148 4.54409C18.9201 2.74993 16.1866 0.486275 13.2158 0.492563L9.46333 0.496755C7.67605 0.49955 5.89017 0.502344 4.10569 0.505138C2.80305 0.511426 -0.0753674 0.169782 0.605368 2.28253C0.77345 2.79395 1.35334 3.25297 1.6832 3.67845L2.76103 5.18127L4.27377 7.71322L7.59341 14.0221C10.0816 18.6326 12.9607 23.0222 16.1992 27.143C18.6427 30.1528 21.5926 33.192 25.2442 34.6843C22.4876 39.7943 19.7381 44.9085 16.9955 50.0269L9.36878 63.8394C8.94459 64.505 8.6727 65.2557 8.57249 66.0381C8.57459 67.4508 10.6777 67.4927 11.682 67.499L14.9386 67.4654C16.8253 67.4445 18.7121 67.4235 20.5988 67.4025L23.9605 67.3271C25.3591 67.2046 26.7153 66.7846 27.9377 66.0955C29.1601 65.4065 30.2204 64.4642 31.0472 63.3322C31.5893 62.5776 36.6612 54.2775 38.716 50.924L41.9243 45.8601L45.1305 50.924L52.7993 63.3322C53.6261 64.4642 54.6864 65.4065 55.9088 66.0955C57.1312 66.7846 58.4874 67.2046 59.886 67.3271C60.9996 67.4319 62.1341 67.39 63.2477 67.4025C65.133 67.4207 67.0198 67.4417 68.9079 67.4654L72.1645 67.499C73.1688 67.4927 75.274 67.4508 75.274 66.0381C75.1753 65.2542 74.9021 64.5038 74.4756 63.8373L74.1184 63.2043L66.8552 50.0269C64.1042 44.9127 61.3519 39.7985 58.5981 34.6843C62.2539 33.1899 65.2017 30.1528 67.6452 27.143C70.8849 23.0223 73.7655 18.6333 76.2531 14.0221L79.5769 7.71322L81.0897 5.18127C81.4258 4.66356 81.783 4.16053 82.1654 3.67845C82.5961 3.27183 82.9596 2.79814 83.2453 2.28253C83.9261 0.169782 81.0477 0.511426 79.7471 0.505138C77.957 0.502344 76.1691 0.49955 74.3832 0.496755L74.3706 0.498852Z" fill="black"/>
<path d="M48.1077 12.2637L48.6792 12.1673C48.9429 12.1119 49.202 12.0369 49.4545 11.9431C49.9705 11.7637 50.4496 11.4924 50.8685 11.1424C51.0568 11.0085 51.2161 10.8381 51.337 10.6415C49.6814 10.6729 48.4481 10.6624 47.6329 10.5995C47.4102 10.566 47.2484 11.1382 47.1433 12.2763C47.1328 12.3644 47.6686 12.3078 48.1098 12.247L48.1077 12.2637ZM39.7666 19.9455C39.7456 19.9665 39.7351 20 39.7351 20.0294C39.7351 20.0587 39.7561 20.1006 39.7813 20.1237C39.8591 20.197 39.9452 20.262 40.0335 20.3207C40.5587 20.6686 41.1743 20.8489 41.8025 20.8405C42.4329 20.8519 43.0518 20.6705 43.5758 20.3207C43.6688 20.2616 43.7573 20.1958 43.8405 20.1237C43.9036 20.0713 43.933 19.9895 43.8867 19.9141C43.8279 19.8554 43.7355 19.8554 43.6766 19.9099L43.4392 20.088H43.4371C42.9504 20.3987 42.3846 20.5638 41.8067 20.5638C41.2289 20.5638 40.6631 20.3987 40.1763 20.088H40.1721C40.0947 20.0328 40.0203 19.9733 39.9494 19.9099C39.9242 19.8889 39.8906 19.8763 39.8549 19.8784C39.8191 19.8805 39.7876 19.8994 39.7666 19.9204V19.9455ZM47.0236 18.864C47.0171 18.8504 47.0114 18.8364 47.0068 18.8221C47.011 18.8367 47.0173 18.8514 47.0278 18.864H47.0236ZM50.9252 14.2444C50.7808 13.9244 50.5644 13.6418 50.2928 13.4186C49.5364 12.8527 48.4859 12.8946 47.7779 13.5234C47.4793 13.8264 47.2393 14.1817 47.0698 14.5714C46.6451 15.4793 46.4366 16.4728 46.4605 17.4744C46.4804 17.9319 46.6577 18.3686 46.9627 18.711C47.364 19.0763 47.869 19.3084 48.4082 19.3754C48.9397 19.5347 49.5091 19.5116 50.0218 19.3062C50.533 18.9331 50.8752 18.3732 50.9735 17.7489C51.2108 17.0173 51.3147 16.2492 51.2803 15.4811C51.2372 15.044 51.1163 14.6181 50.9231 14.2235L50.9252 14.2444Z" fill="white"/>
<path d="M49.0887 16.0886C49.3505 15.9896 49.6205 15.9139 49.8955 15.8623C49.3073 15.9042 49.0005 15.6673 48.9459 15.1538L48.8366 14.1058C48.8576 14.5711 48.7673 15.0344 48.5761 15.4577C48.508 15.5752 48.4102 15.6728 48.2925 15.7407L47.9416 15.8518C47.8122 15.8982 47.6773 15.9278 47.5403 15.9398C48.1832 15.8832 48.5278 16.0446 48.5845 16.4009L48.7946 17.4175C48.8051 16.621 48.9144 16.1913 49.1098 16.1096L49.0887 16.0886ZM49.8934 17.6774L49.8304 17.0171C49.8409 17.3043 49.7884 17.5894 49.677 17.8555C49.6287 17.9289 49.5657 17.9897 49.4669 18.0337L49.261 18.0966C49.177 18.1238 49.093 18.1427 49.0089 18.1511C49.3997 18.1175 49.6392 18.214 49.6392 18.434L49.7506 19.0544C49.7506 18.564 49.8136 18.3062 49.946 18.258C50.1042 18.1928 50.269 18.145 50.4376 18.1154C50.0762 18.1364 49.8829 17.9855 49.8493 17.6962" fill="white"/>
<path d="M36.4302 12.2929C36.3167 11.1359 36.1571 10.5637 35.9385 10.6161C35.0981 10.679 33.89 10.6895 32.2302 10.658C32.3514 10.8538 32.5099 11.024 32.6967 11.159C33.1161 11.5082 33.595 11.7794 34.1106 11.9596C34.3627 12.0525 34.6211 12.1275 34.8838 12.1839C34.9385 12.1965 35.178 12.2405 35.4553 12.2803C35.8755 12.3432 36.4323 12.3998 36.4281 12.3096L36.4302 12.2929ZM36.5605 18.8868L36.5773 18.8449C36.5731 18.8596 36.5689 18.8722 36.5626 18.8868H36.5605ZM32.308 15.506C32.2717 16.2743 32.3757 17.0427 32.6147 17.7739C32.6621 18.0831 32.7704 18.38 32.9334 18.6473C33.0964 18.9146 33.3108 19.147 33.5644 19.3312C34.0791 19.5366 34.6485 19.5408 35.178 19.4003C35.7179 19.3333 36.2222 19.1027 36.6487 18.7359C36.9537 18.3936 37.131 17.9568 37.1508 17.4993C37.1761 16.4974 36.966 15.5039 36.5205 14.5964C36.3575 14.1969 36.1169 13.8337 35.8125 13.5274C35.1065 12.8986 34.056 12.8567 33.2997 13.4226C33.0265 13.6448 32.8122 13.9256 32.6693 14.2484C32.4742 14.6424 32.3524 15.0686 32.3101 15.506H32.308Z" fill="white"/>
<path d="M34.497 16.0889C34.2353 15.9898 33.9653 15.914 33.6902 15.8625C34.2785 15.9044 34.5852 15.6676 34.6398 15.1541L34.7491 14.1061C34.7278 14.5714 34.8185 15.0349 35.0138 15.458C35.0811 15.5754 35.1777 15.6718 35.2933 15.741L35.6441 15.852C35.7744 15.8981 35.9089 15.9275 36.0475 15.9401C35.4046 15.8835 35.0558 16.0449 35.0033 16.4012L34.7932 17.4177C34.7827 16.6213 34.6735 16.1916 34.4781 16.1098L34.497 16.0889ZM33.6902 17.6776L33.7574 17.0174C33.7482 17.3039 33.8005 17.589 33.9108 17.8537C33.957 17.925 34.02 17.9857 34.0957 18.0319L34.3058 18.0947C34.3898 18.122 34.4739 18.1409 34.5579 18.1492C34.165 18.1157 33.9276 18.2121 33.9276 18.4322L33.8183 19.0526C33.8183 18.5621 33.7511 18.3043 33.6229 18.2561C33.4649 18.1906 33.3 18.1428 33.1313 18.1136C33.4927 18.1346 33.6881 17.9837 33.7196 17.6944L33.6902 17.6776ZM9.61653 63.9653L9.10598 65.007C8.9568 65.3295 8.86985 65.6772 8.84966 66.0319V66.0361C8.84335 66.2729 8.94 66.4972 9.11228 66.6607C9.31959 66.8356 9.56376 66.9617 9.82664 67.0296C10.4345 67.1712 11.0578 67.2353 11.6818 67.2203L12.018 67.2224L20.6007 67.1218L21.189 67.1197L21.8824 67.1218L23.9372 67.0464C26.6685 66.8074 29.2003 65.3696 30.8286 63.1646C31.2146 62.5824 31.59 61.9934 31.9547 61.3977L34.0852 57.9561L38.4847 50.7774L41.693 45.7093C41.7191 45.6705 41.754 45.6385 41.7949 45.6159C41.8358 45.5933 41.8816 45.5808 41.9283 45.5793C42.0229 45.5751 42.109 45.6296 42.1384 45.7093L45.353 50.7774L51.8809 61.3956L53.0092 63.1625C53.8118 64.2637 54.842 65.1803 56.0301 65.8503C57.2183 66.5203 58.5367 66.9282 59.8964 67.0464C60.5797 67.1044 61.2654 67.1295 61.9512 67.1218L62.6487 67.1197L63.237 67.1218C65.1209 67.1428 67.0077 67.1637 68.8972 67.1847L71.8386 67.2203L72.1748 67.2182C72.6373 67.2239 73.0995 67.1937 73.5573 67.1281C73.9901 67.0862 74.404 66.9248 74.7465 66.6565C74.8325 66.5772 74.9004 66.4804 74.9457 66.3726C74.991 66.2649 75.0126 66.1487 75.0091 66.0319V66.0235C74.9881 65.6672 74.9041 65.3214 74.757 64.9755C74.6057 64.6129 74.4103 64.2503 74.2443 63.9422L73.8913 63.3365L66.6218 50.1318C63.8694 45.0176 61.1185 39.9034 58.3689 34.7892C58.3332 34.7201 58.3269 34.6383 58.3542 34.565C58.3815 34.4916 58.4383 34.4308 58.5097 34.4015C62.0877 32.9427 65.0145 29.937 67.4454 26.944C70.6768 22.8358 73.5468 18.4552 76.0281 13.8588L78.543 9.03381C76.6149 11.9311 74.2246 14.4941 71.4668 16.6213C67.4118 19.8805 60.5414 23.1188 50.8661 26.2628C41.5515 29.2992 34.6994 32.8344 30.3096 36.8684L25.9101 40.7732C24.9793 41.7434 24.0646 42.7286 23.1661 43.7286C20.9453 46.2521 18.8653 48.8952 16.9365 51.6472L14.8061 54.6654L9.97371 63.3365L9.62074 63.9569" fill="white"/>
<path d="M82.7832 2.13362C82.6946 2.34108 82.5669 2.52964 82.4071 2.68906L81.7852 3.38073L81.781 3.38492C81.386 3.87958 81.0183 4.39518 80.6758 4.92756H80.6779L79.1568 7.47837L75.8308 13.7915C73.3558 18.3775 70.4942 22.7455 67.2691 26.8431C64.8466 29.832 61.9409 32.8041 58.4196 34.2419C58.2935 34.2943 58.1885 34.3991 58.1423 34.5312C58.096 34.6632 58.1065 34.8079 58.1717 34.9504C60.9282 40.0604 63.6806 45.1746 66.4287 50.293L73.6983 63.4767L74.0513 64.0992L74.5555 65.1157C74.6923 65.4121 74.7728 65.7312 74.7929 66.0568V66.0673C74.8013 66.2434 74.7299 66.4152 74.5996 66.5347C74.2845 66.7716 73.9126 66.9162 73.5197 66.9539C73.0722 67.0168 72.6226 67.044 72.1708 67.0419H71.8032C70.8493 67.0419 69.887 67.0168 68.9206 67.0084C67.0324 66.986 65.1457 66.9651 63.2604 66.9455L62.7477 66.9413L61.9493 66.9434C61.2665 66.9434 60.5921 66.9351 59.9386 66.8722C58.6101 66.7558 57.3218 66.3573 56.1604 65.7033C54.999 65.0494 53.9912 64.1551 53.2048 63.0805L52.8203 62.4937L45.5592 50.7059L42.3446 45.6336C42.2542 45.4932 42.0967 45.4072 41.9286 45.4072C41.7605 45.4072 41.605 45.4911 41.5126 45.6336C41.5105 45.6378 39.0838 49.4273 38.298 50.7059L33.9047 57.8448L31.7764 61.2822L31.041 62.4517L30.6565 63.0386C29.0661 65.2142 26.61 66.5955 23.9227 66.8323C23.2714 66.8952 22.5991 66.9036 21.912 66.9036C21.6473 66.9036 21.3805 66.9015 21.1137 66.9015L20.601 66.9057C18.7143 66.9225 16.8275 66.9434 14.9408 66.9686L12.0582 67.0021H11.6905C11.0854 67.0168 10.4824 66.9539 9.89413 66.8177C9.66302 66.7632 9.44662 66.6542 9.26383 66.4991C9.13356 66.3796 9.06213 66.2056 9.07473 66.0296V66.0212C9.09574 65.6963 9.17558 65.3756 9.31215 65.078C9.45922 64.728 9.64831 64.3717 9.81219 64.0615L10.1631 63.441L17.4326 50.2573C20.1822 45.1431 22.9317 40.0289 25.6813 34.9148C25.7485 34.7932 25.759 34.6465 25.7128 34.4956C25.6666 34.3446 25.5657 34.2587 25.4355 34.2063C21.9141 32.7706 19.0063 29.7985 16.5859 26.8075C13.365 22.7078 10.5013 18.3397 8.02842 13.7558L4.70248 7.44274L3.18133 4.89403C2.83887 4.36165 2.47118 3.84604 2.07619 3.35139C1.87659 3.09568 1.64548 2.86931 1.45218 2.65971C1.29248 2.50141 1.16542 2.31343 1.0782 2.10637C1.02988 1.96804 1.00256 1.82342 0.998362 1.6767C0.989958 1.55932 1.02778 1.44614 1.10341 1.35182C1.29237 1.18051 1.53048 1.07274 1.78415 1.04371C2.17808 0.975022 2.5777 0.944141 2.97753 0.95149L4.11209 0.968259C5.89937 0.965464 7.68525 0.962668 9.46973 0.959873C10.7191 0.959873 11.9693 0.959176 13.2201 0.957779H13.2348C14.6488 1.02066 16.0186 1.46081 17.1994 2.24052C18.4367 3.02497 19.6061 3.91116 20.6955 4.88984C22.6756 6.68157 24.4795 8.65798 26.0826 10.7921C26.1939 10.9325 26.3704 11.0017 26.5448 10.9724C26.7192 10.943 26.8684 10.8257 26.9293 10.658C27.5303 9.0567 28.2552 7.50448 29.0976 6.01538L29.106 5.99861C30.1103 4.01372 32.142 2.08961 34.2808 1.65574C34.8682 1.54665 35.4652 1.49749 36.0625 1.50902L37.9114 1.53836H39.4178H45.9521L47.801 1.50902C48.3976 1.49734 48.9939 1.5465 49.5805 1.65574C51.7194 2.08961 53.7532 4.01162 54.7575 5.99861L54.7659 6.01538C55.6076 7.50483 56.3325 9.05699 56.9342 10.658C56.9972 10.8257 57.1443 10.9472 57.3186 10.9724C57.493 10.9975 57.6758 10.9305 57.7809 10.7921C59.3835 8.65824 61.1867 6.68185 63.1658 4.88984C64.2571 3.91165 65.4279 3.0255 66.6661 2.24052C67.8469 1.465 69.2168 1.02066 70.6308 0.957779H70.6434C71.8928 0.957779 73.1436 0.958476 74.3958 0.959873C76.1803 0.962668 77.9676 0.965464 79.7577 0.968259H79.7955L80.888 0.95149C81.3923 0.93053 81.9007 0.989217 82.3903 1.12755C82.5307 1.1697 82.6579 1.24689 82.7601 1.35182C82.8347 1.44303 82.8715 1.55927 82.863 1.6767C82.8584 1.82313 82.8314 1.96801 82.7832 2.10637V2.13362ZM83.5059 0.741891C83.1782 0.400246 82.7432 0.175978 82.2747 0.113099C81.8167 0.0292594 81.3503 -0.00637317 80.888 0.00201075L79.7535 0.0187794C77.9648 0.0159847 76.1768 0.0131887 74.3895 0.0103941C73.1373 0.0103941 71.8683 0.00620241 70.6371 0.00620241H70.6392H70.6245C69.0314 0.0674605 67.4851 0.560163 66.1514 1.43147C64.8656 2.24471 63.6302 3.16275 62.5166 4.15624C60.6927 5.79114 59.0244 7.59087 57.533 9.53243C56.9762 8.16585 56.3354 6.83491 55.6147 5.55007C54.4528 3.17323 52.3245 1.40841 49.7696 0.708356C49.1393 0.582597 48.4544 0.528102 47.7905 0.540678L45.9416 0.570021H44.4351H41.9223H39.4094H37.8967C37.3189 0.570021 36.6928 0.540678 36.052 0.540678C35.386 0.528102 34.722 0.582597 34.0686 0.708356C31.5054 1.41261 29.377 3.18161 28.2172 5.56684C27.4987 6.84958 26.8621 8.17424 26.3053 9.53453C24.8146 7.59235 23.1462 5.79255 21.3217 4.15834C20.1871 3.14388 18.9748 2.22585 17.6911 1.43356C16.3573 0.562257 14.811 0.0695573 13.218 0.00829924H13.1907L9.45082 0.0124909C7.66354 0.0152855 5.87766 0.0180796 4.09318 0.0208742H4.05746C3.76962 0.0208742 3.37883 0.00410758 2.96493 0.00410758C2.34417 -0.0195433 1.72375 0.0590621 1.12862 0.236762C0.826024 0.335209 0.554437 0.510773 0.340737 0.746083C0.113417 1.01542 -0.00760311 1.35823 0.000370316 1.71023C0.00482995 1.95836 0.047344 2.20435 0.126433 2.43964C0.255671 2.77795 0.45221 3.08667 0.704216 3.34719L1.2841 3.98647C1.65809 4.45387 2.00896 4.94224 2.33462 5.44737L3.83686 7.96254L7.15649 14.2505C9.65806 18.8853 12.5526 23.2981 15.8085 27.4405C18.1617 30.3371 21.0107 33.2841 24.5593 34.8938C21.884 39.8543 19.2227 44.8176 16.5754 49.7836L8.94867 63.6171L8.4066 64.7175C8.21751 65.1325 8.11246 65.5769 8.09565 66.0338V66.0547C8.09378 66.2728 8.13683 66.489 8.22212 66.6898C8.30741 66.8906 8.43313 67.0718 8.5915 67.2222C9.04742 67.5995 9.60419 67.8363 10.1925 67.8992C10.6883 67.9684 11.1905 68.004 11.6926 67.9956H12.0666L20.6178 67.8971L21.1221 67.895H21.9204L24.0257 67.8175C26.9965 67.5555 29.709 66.0254 31.4633 63.6213L31.8835 62.9862L39.1531 51.1858L41.044 48.1844L41.9412 46.7801L42.8362 48.1844L44.7272 51.1858L49.1267 58.3667L51.2593 61.8125L51.9946 62.9862L52.4106 63.6213C53.2787 64.8096 54.3914 65.799 55.6742 66.5231C56.957 67.2471 58.3802 67.6892 59.8483 67.8196C60.5484 67.8791 61.2509 67.9049 61.9535 67.8971H62.7519L63.2562 67.8992L71.8116 67.9977H72.1856C72.8789 68.0145 73.5722 67.939 74.2509 67.7755C74.6354 67.6791 74.9925 67.4884 75.2888 67.2243C75.6144 66.9183 75.793 66.4907 75.7867 66.0443V66.0338C75.7696 65.5784 75.664 65.1307 75.4758 64.7154C75.3035 64.3025 75.0976 63.9189 74.9295 63.6129L74.5639 62.9674L67.307 49.8046C64.6386 44.8441 61.9689 39.8808 59.2978 34.9148C62.8486 33.305 65.6913 30.3581 68.0465 27.4615C71.3036 23.319 74.1996 18.9063 76.7028 14.2714L80.0224 7.9835L81.5247 5.46833C81.8491 4.96444 82.1982 4.47688 82.571 4.00743V4.01162C82.7054 3.83766 82.9281 3.61758 83.1529 3.37025C83.4052 3.1107 83.6018 2.80262 83.7307 2.46479C83.8106 2.23004 83.8526 1.98271 83.8568 1.73119C83.8652 1.37907 83.7433 1.03533 83.5164 0.767043L83.5059 0.741891Z" fill="black"/>
<path d="M153.307 13.6198C151.143 14.7516 150.338 16.6589 150.338 21.9324C151.132 21.2198 152.054 20.6602 153.059 20.2892C154.05 19.9156 154.985 19.4086 155.838 18.7822C157.666 17.447 157.948 15.7262 157.948 12.8296C157.948 12.8296 154.969 12.7457 153.305 13.6177" fill="black"/>
<path d="M140.48 14.8521C139.352 15.9491 138.561 17.3445 138.2 18.8743L132.359 41.4417L127.502 22.9719C127.029 21.008 126.178 18.5809 124.829 16.9397C123.111 14.8479 119.619 14.718 119.245 14.718C118.871 14.718 115.379 14.8479 113.66 16.9397C112.311 18.5809 111.458 21.0059 110.985 22.9719L106.153 41.4417L100.312 18.8743C99.9535 17.3436 99.1632 15.9472 98.0347 14.85C95.1773 12.3348 90.887 12.8735 90.887 12.8735L102.069 55.0488C102.069 55.0488 105.758 55.3129 107.603 54.3739C110.027 53.1415 111.181 52.1899 112.649 46.4511L117.955 25.2398C118.123 24.7116 118.337 23.4477 119.268 23.4477C120.219 23.4477 120.415 24.7095 120.581 25.2398C120.917 26.2878 124.579 41.3369 125.886 46.4511C127.352 52.1878 128.508 53.1415 130.928 54.3739C132.773 55.3129 136.463 55.0488 136.463 55.0488L147.64 12.8735C147.64 12.8735 143.354 12.3348 140.492 14.85L140.48 14.8521ZM157.962 19.7399C157.347 20.5529 156.564 21.2247 155.666 21.7102C154.641 22.2803 153.657 22.668 152.603 23.1732C150.834 24.0199 150.355 24.9631 150.355 26.401V55.0321C150.355 55.0321 153.176 55.3884 155.019 54.4494C157.393 53.2421 157.96 52.0767 157.96 46.8326L157.962 19.7399ZM185.814 34.0639L200 13.0139C200 13.0139 194.012 11.9974 191.05 14.6907C189.563 16.1701 188.218 17.7839 187.03 19.5115L181.811 27.0193C181.736 27.2553 181.588 27.4615 181.388 27.6084C181.188 27.7552 180.946 27.8351 180.698 27.8367C180.187 27.8367 179.738 27.5076 179.584 26.9983L174.38 19.5303C173.193 17.8033 171.848 16.1894 170.361 14.7096C167.419 12.0184 161.41 13.0328 161.41 13.0328L175.596 34.0827L161.446 55.0677C161.446 55.0677 167.682 55.8516 170.644 53.1813C172.044 51.8079 173.295 50.2919 174.378 48.6582L179.599 41.1504C179.674 40.9143 179.823 40.7081 180.023 40.5613C180.223 40.4145 180.464 40.3345 180.712 40.333C181.223 40.333 181.673 40.662 181.826 41.1713L187.045 48.6791C188.18 50.3035 189.467 51.8168 190.89 53.2023C193.831 55.8935 199.981 55.0886 199.981 55.0886L185.833 34.1037" fill="black"/>
</symbol>
</svg>
